<?xml version="1.0" standalone="no"?>
<!DOCTYPE svg PUBLIC "-//W3C//DTD SVG 20010904//EN"
 "http://www.w3.org/TR/2001/REC-SVG-20010904/DTD/svg10.dtd">
<svg version="1.0" xmlns="http://www.w3.org/2000/svg"
 width="512.000000pt" height="512.000000pt" viewBox="0 0 512.000000 512.000000"
 preserveAspectRatio="xMidYMid meet">
<metadata>
Created by potrace 1.16, written by Peter Selinger 2001-2019
</metadata>
<g transform="translate(0.000000,512.000000) scale(0.100000,-0.100000)"
fill="#000000" stroke="none">
<path d="M0 2560 l0 -2560 2560 0 2560 0 0 2560 0 2560 -2560 0 -2560 0 0
-2560z m449 2493 c45 -74 61 -98 155 -237 48 -71 85 -134 83 -140 -2 -6 -14
-11 -27 -11 -19 0 -25 8 -36 46 -16 55 -50 91 -64 69 -6 -8 -10 -35 -10 -60
-1 -44 -17 -80 -37 -80 -5 0 -34 -17 -64 -38 -44 -32 -60 -38 -90 -35 -41 5
-69 -15 -69 -51 0 -18 8 -24 38 -32 34 -8 37 -12 37 -44 0 -31 -3 -35 -25 -35
-19 0 -30 10 -49 45 -13 25 -53 70 -89 100 -72 61 -102 102 -102 140 0 69 251
410 302 410 11 0 29 -18 47 -47z m1031 27 c25 -25 25 -67 1 -145 -10 -33 -22
-100 -26 -150 -6 -74 -11 -94 -30 -115 -13 -14 -33 -50 -44 -81 -27 -70 -57
-99 -153 -143 -42 -20 -85 -47 -96 -61 -11 -13 -32 -29 -46 -35 -42 -15 -118
-12 -145 6 -34 24 -26 60 57 254 38 91 75 182 82 202 9 29 38 60 131 140 178
152 223 174 269 128z m2435 -17 c14 -21 42 -63 62 -93 20 -30 70 -104 110
-165 41 -60 72 -116 71 -125 -2 -8 -14 -15 -28 -15 -19 0 -26 7 -31 32 -9 45
-37 85 -57 81 -12 -2 -18 -15 -20 -48 -4 -67 -11 -90 -28 -90 -16 0 -54 -22
-97 -57 -22 -17 -33 -20 -51 -13 -33 12 -61 3 -76 -25 -18 -33 -7 -51 35 -59
35 -7 36 -9 33 -44 -2 -29 -7 -37 -23 -37 -21 0 -68 61 -59 76 3 5 2 9 -3 9
-22 1 -158 134 -173 170 -11 26 -9 36 13 82 65 132 240 358 277 358 12 0 31
-15 45 -37z m-1072 -17 c23 -13 67 -28 98 -35 31 -7 65 -18 75 -25 18 -14 18
-16 -4 -77 -12 -35 -22 -78 -22 -95 0 -40 -7 -46 -36 -27 -13 8 -31 12 -40 9
-10 -4 -31 -2 -49 4 -21 7 -41 7 -58 1 -43 -16 -52 7 -52 128 0 152 8 163 88
117z m-766 -40 c50 -1 94 -4 97 -7 4 -3 -2 -26 -13 -50 -20 -45 -20 -51 4
-155 6 -26 1 -39 -27 -77 -22 -31 -40 -46 -52 -44 -24 3 -81 89 -160 244 -50
98 -49 108 12 98 26 -5 88 -9 139 -9z m2600 0 c50 0 95 -4 98 -8 4 -4 0 -23
-9 -42 -20 -42 -20 -68 -1 -134 l16 -52 -38 -50 c-21 -29 -44 -49 -53 -48 -29
6 -190 283 -190 328 0 21 3 22 43 15 23 -4 83 -8 134 -9z m-2572 -732 c24 -10
76 -120 80 -171 3 -35 14 -56 59 -110 60 -72 82 -111 91 -160 4 -25 1 -32 -12
-35 -10 -3 1 -8 24 -12 24 -4 45 -12 49 -17 3 -5 16 -9 29 -9 15 0 31 -10 41
-25 15 -24 17 -24 30 -8 11 16 15 16 35 4 21 -12 24 -12 34 4 22 38 42 53 69
48 14 -3 26 -1 26 4 0 22 48 62 68 56 11 -2 23 0 26 6 4 5 13 8 21 4 10 -3 15
1 15 15 0 32 39 74 64 68 16 -4 24 2 36 27 10 21 21 31 35 30 10 -1 25 7 33
18 7 10 22 19 33 19 10 0 28 9 40 21 13 13 28 19 41 16 12 -4 32 3 49 15 17
13 36 19 50 15 12 -3 35 1 51 9 23 12 33 13 44 3 9 -8 18 -8 27 -1 14 11 95
13 102 2 3 -5 13 -6 23 -3 21 5 72 -13 72 -26 0 -5 -36 -7 -84 -4 -56 4 -85 2
-90 -6 -10 -16 -43 -14 -49 4 -5 13 -11 13 -42 -1 -20 -8 -41 -12 -46 -8 -6 3
-25 -1 -42 -9 -18 -8 -58 -27 -89 -42 -31 -15 -62 -33 -69 -41 -6 -8 -16 -14
-21 -14 -5 0 -19 -11 -31 -23 -12 -13 -32 -29 -44 -36 -13 -6 -23 -19 -23 -29
0 -14 -2 -14 -9 -3 -7 11 -11 9 -20 -8 -7 -11 -16 -21 -22 -21 -5 0 -34 -18
-63 -39 -30 -22 -57 -37 -60 -34 -3 4 -19 -6 -35 -21 -16 -16 -34 -25 -39 -22
-6 3 -23 -5 -39 -18 -15 -13 -32 -23 -36 -22 -4 0 -19 -9 -32 -22 -14 -13 -30
-20 -36 -16 -8 4 -9 3 -5 -4 4 -6 -6 -18 -24 -27 -16 -8 -30 -20 -30 -26 0 -6
-4 -8 -9 -4 -6 3 -15 -4 -21 -15 -9 -17 -8 -20 7 -20 38 0 92 13 88 20 -3 5
-15 6 -28 3 -20 -4 -20 -3 -4 7 10 7 27 10 38 7 12 -3 19 0 19 9 0 7 11 21 25
30 22 15 29 15 53 3 43 -22 48 -22 23 0 -22 20 -22 21 -3 21 11 0 25 -7 32
-15 7 -8 17 -15 23 -15 5 0 2 9 -7 19 -16 18 -16 20 6 35 31 22 38 21 69 -16
16 -18 28 -28 29 -22 0 6 -7 17 -15 24 -8 7 -15 23 -15 36 0 20 5 24 30 24 22
0 41 -11 69 -39 21 -21 41 -45 44 -52 4 -9 6 -8 6 5 1 10 -10 29 -24 42 -14
13 -25 34 -25 49 0 14 0 28 -1 33 0 4 19 11 41 15 35 7 41 12 37 28 -6 22 3
25 21 7 9 -9 12 -4 12 25 0 20 5 37 10 37 6 0 10 -9 10 -19 0 -23 16 -36 23
-19 3 10 9 11 26 1 28 -17 50 -18 33 -1 -14 14 -16 68 -2 68 6 0 10 -5 10 -11
0 -6 6 -9 13 -6 7 2 11 15 9 30 -5 37 14 34 22 -3 3 -16 10 -30 15 -30 5 0 7
8 4 19 -3 10 0 22 6 25 6 4 11 0 11 -8 0 -20 16 -21 24 -1 3 8 11 15 18 15 7
0 19 9 26 20 7 11 17 20 22 20 6 0 24 15 40 33 23 25 29 28 30 14 0 -17 2 -17
22 -3 32 23 124 22 137 -1 6 -10 11 -14 11 -9 0 5 8 2 17 -6 10 -8 30 -18 44
-22 39 -9 42 -31 8 -67 -17 -18 -37 -45 -45 -61 -15 -29 -15 -29 13 -22 34 8
28 1 45 54 12 37 21 47 51 59 20 7 44 11 53 7 15 -6 15 -9 -5 -29 -27 -30 -27
-37 4 -37 29 0 32 -16 9 -48 -15 -22 -14 -23 15 -33 17 -6 31 -16 31 -22 -1
-20 -29 -50 -58 -63 -27 -12 -27 -12 13 -13 71 -2 78 -23 20 -54 l-30 -16 42
-1 c23 0 45 -4 48 -10 9 -14 -12 -48 -35 -55 -33 -11 -24 -35 13 -35 18 0 41
-6 51 -13 18 -13 17 -15 -10 -34 -16 -11 -38 -24 -49 -28 -19 -8 -19 -9 3 -13
15 -2 22 -9 18 -18 -4 -10 3 -14 24 -14 35 0 40 -15 8 -25 l-23 -8 23 -4 c12
-2 38 1 57 7 35 11 43 27 26 45 -11 12 -41 144 -41 180 0 44 18 18 30 -43 6
-31 20 -83 31 -115 24 -73 24 -75 -8 -89 l-28 -12 38 -5 c58 -9 44 -26 -23
-28 -60 -2 -70 3 -48 25 9 9 3 12 -31 12 -29 0 -40 4 -35 12 4 7 3 8 -5 4 -7
-4 -20 2 -31 16 -16 19 -19 20 -20 6 0 -20 -20 -24 -37 -7 -9 9 -10 7 -6 -10
6 -24 -9 -28 -27 -6 -7 8 -17 15 -22 15 -7 0 -6 -5 1 -13 13 -16 3 -31 -13
-18 -18 14 -69 23 -61 11 8 -14 4 -13 -34 6 -32 16 -53 22 -82 23 -9 1 -33 13
-54 27 -21 14 -48 27 -60 28 -12 1 -33 13 -46 25 -29 28 -79 55 -87 47 -3 -3
-11 3 -19 14 -8 11 -25 20 -38 20 -13 0 -39 9 -58 20 -18 11 -45 20 -58 19
-34 -1 -128 8 -165 16 -19 4 -34 3 -38 -4 -4 -6 -25 -11 -46 -11 -22 0 -45 -7
-54 -16 -9 -8 -16 -11 -16 -6 0 5 -7 9 -15 9 -8 0 -12 -4 -9 -9 3 -5 -6 -6
-20 -2 -44 11 -76 -3 -77 -34 -1 -15 -3 -20 -6 -11 -3 14 -11 15 -45 7 -51
-11 -73 -27 -73 -53 0 -14 -8 -20 -29 -22 -28 -2 -28 -2 -10 19 18 21 18 21 1
15 -10 -4 -22 -7 -27 -7 -5 0 -16 -7 -24 -16 -12 -12 -13 -20 -6 -35 8 -14 8
-24 0 -37 -11 -16 -11 -16 -6 0 9 29 -13 31 -48 4 -19 -14 -36 -23 -38 -20 -3
2 -3 -8 -1 -23 5 -26 4 -27 -9 -9 -13 17 -19 17 -54 6 -51 -17 -68 -30 -54
-44 5 -5 10 -16 10 -24 0 -10 -3 -10 -16 2 -19 20 -28 20 -63 2 -41 -22 -56
-43 -42 -60 9 -11 9 -16 0 -22 -7 -4 -9 -3 -5 4 9 15 -21 30 -51 24 -13 -2
-30 -13 -36 -23 -7 -11 -20 -19 -30 -19 -20 0 -86 -39 -106 -63 -11 -15 -10
-18 12 -26 14 -6 31 -19 36 -30 18 -32 13 -34 -12 -5 -21 24 -28 26 -61 20
-40 -8 -86 -45 -86 -69 0 -9 14 -17 36 -20 42 -7 110 -51 126 -81 10 -19 9
-19 -11 2 -12 12 -25 22 -28 22 -4 0 -2 -5 5 -12 14 -14 16 -58 3 -58 -6 0 -9
8 -9 18 0 9 -4 29 -10 44 -20 50 -128 63 -190 22 -15 -10 -34 -18 -43 -19 -8
-1 -25 -8 -37 -17 -22 -15 -22 -15 -2 -33 11 -10 20 -28 19 -39 0 -20 0 -20
-9 1 -15 36 -54 39 -100 9 -21 -14 -55 -27 -75 -29 l-36 -4 4 38 c2 22 12 48
22 59 10 11 23 30 29 43 7 12 22 23 36 25 44 5 110 24 110 33 0 4 -5 11 -12
15 -6 4 -8 3 -4 -4 8 -13 -29 -26 -45 -16 -8 4 -9 3 -5 -4 5 -8 0 -12 -13 -12
-14 0 -21 6 -21 19 0 25 26 51 51 51 10 0 19 7 19 15 0 8 9 23 20 32 11 10 20
23 20 30 0 6 6 18 14 25 8 8 15 23 17 33 2 11 17 26 34 35 16 8 36 23 45 34 9
10 29 18 46 18 37 0 54 14 54 44 0 20 5 24 32 24 17 0 40 7 50 16 17 16 17 17
-8 30 -14 8 -30 12 -34 9 -5 -3 -11 -1 -15 5 -3 5 -13 10 -22 10 -15 0 -14 -2
0 -18 19 -21 23 -42 5 -24 -18 18 -38 15 -75 -14 l-33 -25 0 24 c0 14 7 30 15
37 8 7 12 17 9 22 -4 5 3 23 15 39 11 15 21 33 21 39 0 19 32 60 46 60 8 0 14
7 14 15 0 17 45 49 58 41 6 -3 16 1 23 10 9 11 23 14 49 10 28 -4 40 -1 53 14
19 22 14 32 -50 113 -16 20 -23 42 -23 73 0 82 -104 247 -194 309 -52 35 -106
95 -106 117 0 9 551 11 575 2z m-1493 -61 c22 -20 24 -75 3 -134 -9 -24 -21
-91 -27 -148 -9 -83 -16 -109 -34 -131 -13 -15 -33 -53 -44 -84 -25 -65 -54
-91 -168 -145 -40 -19 -74 -43 -77 -52 -13 -40 -166 -57 -200 -22 -25 24 -16
61 63 246 38 89 77 183 86 209 11 30 30 56 54 74 20 15 69 55 107 89 130 114
191 140 237 98z m4167 -10 c41 -54 251 -374 251 -383 0 -5 -9 -14 -20 -20 -17
-9 -22 -7 -30 17 -25 66 -32 79 -51 91 -28 18 -33 10 -39 -55 -5 -52 -8 -58
-40 -76 -19 -10 -52 -32 -72 -48 -32 -25 -44 -29 -73 -23 -42 8 -75 -15 -75
-52 0 -18 7 -25 28 -30 51 -11 53 -13 50 -46 -2 -28 -7 -33 -28 -33 -19 0 -30
10 -49 44 -14 25 -41 58 -60 75 -76 64 -120 113 -126 139 -9 35 34 121 119
240 83 116 149 187 174 187 11 0 30 -12 41 -27z m-450 -187 l2 -143 -53 -6
c-29 -4 -72 -7 -95 -7 -24 0 -100 -20 -175 -45 -79 -27 -146 -45 -165 -43
l-33 3 50 65 c28 36 62 82 75 102 19 28 48 50 113 83 48 24 127 67 177 94 49
27 93 47 96 45 4 -2 8 -69 8 -148z m-2785 -33 c22 9 46 -46 46 -105 0 -27 -3
-47 -7 -45 -5 3 -8 -27 -8 -66 0 -64 -2 -72 -20 -75 -22 -2 -118 79 -121 104
-4 29 13 21 36 -17 25 -40 40 -50 40 -25 0 8 -20 35 -44 60 -24 26 -50 60 -56
77 -7 16 -16 29 -21 29 -8 0 -2 48 7 59 1 2 18 -11 36 -28 38 -36 46 -38 54
-13 14 41 28 62 35 51 4 -7 14 -9 23 -6z m2501 -650 c30 -62 58 -131 61 -152
6 -35 11 -42 40 -51 42 -14 48 -46 7 -36 -16 4 -46 9 -68 12 -71 9 -85 14 -85
28 0 8 -7 17 -16 20 -15 6 -14 9 6 31 30 32 19 45 -43 46 -50 1 -127 15 -97
18 8 1 31 5 50 11 35 9 35 10 32 59 -4 47 -3 48 22 44 25 -5 25 -4 15 28 -16
52 -31 78 -42 76 -5 -1 -12 4 -14 11 -3 6 0 12 7 12 7 0 9 13 5 38 -6 36 -5
36 30 -23 19 -33 60 -111 90 -172z m-1252 68 c-2 -6 4 -11 13 -11 9 0 12 5 8
11 -9 14 37 5 80 -17 35 -17 60 -18 50 -2 -4 7 -3 8 5 4 6 -4 9 -11 6 -16 -3
-5 13 -31 37 -57 23 -27 54 -61 68 -78 l25 -30 -35 30 c-19 17 -37 32 -40 35
-3 3 -26 16 -52 30 -29 15 -43 27 -36 31 7 4 -6 9 -28 11 -22 2 -38 8 -37 14
1 7 -11 14 -26 16 -21 3 -28 1 -24 -9 6 -16 -42 -18 -52 -3 -4 6 -10 8 -15 5
-5 -3 -20 0 -32 7 -27 15 -29 15 -68 17 -16 0 -30 6 -30 12 0 10 57 7 133 -7
15 -3 27 -2 26 3 -3 18 2 24 14 20 6 -2 11 -10 10 -16z m72 -86 c46 -13 125
-67 178 -123 44 -47 60 -71 37 -57 -5 3 -12 -6 -16 -20 -3 -14 -9 -25 -13 -25
-13 1 -40 27 -34 33 6 7 -34 12 -52 6 -20 -5 -80 2 -89 11 -19 19 -38 11 -31
-12 5 -17 1 -14 -13 8 -30 46 -42 50 -42 15 0 -38 -9 -39 -43 -3 -43 45 -36
55 51 71 24 5 45 5 48 -1 3 -5 14 -6 25 -3 14 5 19 2 19 -12 0 -15 2 -15 9 -4
8 12 12 12 24 2 9 -7 21 -11 29 -10 26 3 38 -1 58 -23 11 -12 20 -16 20 -9 0
7 5 9 13 5 6 -4 0 5 -14 20 -14 15 -32 29 -40 30 -8 2 -30 9 -49 17 -19 8 -45
13 -58 12 -15 -2 -20 2 -15 10 4 7 -2 5 -12 -3 -11 -9 -16 -10 -11 -2 4 7 1
12 -8 12 -9 0 -16 -6 -16 -12 0 -9 -4 -8 -10 2 -7 12 -10 12 -10 1 0 -7 -6
-11 -14 -8 -7 3 -19 0 -26 -6 -10 -9 -11 -9 -6 3 7 13 6 13 -6 0 -18 -20 -88
-52 -88 -40 0 6 5 10 10 10 6 0 10 4 10 9 0 6 -15 4 -33 -4 -29 -12 -34 -12
-34 0 0 8 4 12 8 9 4 -2 11 1 15 7 4 7 -3 19 -16 29 l-23 17 46 18 c45 17 145
34 177 30 8 -1 28 -6 45 -10z m810 5 c3 -6 -1 -13 -9 -16 -9 -3 -16 -10 -16
-15 0 -4 6 -6 14 -3 7 3 27 -6 44 -20 16 -15 32 -26 36 -26 14 0 100 -94 89
-97 -14 -5 -18 -25 -5 -21 4 1 17 -3 30 -10 28 -16 29 -42 0 -42 -21 0 -21 -1
7 -30 16 -16 35 -30 42 -30 18 0 16 10 -4 25 -13 10 -11 11 15 7 18 -2 32 -10
32 -17 0 -7 13 -19 30 -27 16 -7 43 -34 60 -59 17 -26 43 -60 58 -77 15 -16
36 -46 47 -66 11 -21 29 -46 40 -57 11 -10 32 -30 46 -44 29 -28 39 -31 39
-13 0 7 -17 28 -38 48 -34 31 -61 80 -44 80 9 0 92 -94 92 -104 0 -4 11 -21
25 -38 17 -20 25 -42 25 -69 0 -21 -3 -38 -7 -38 -20 3 -22 -3 -8 -25 12 -19
15 -48 13 -141 l-3 -118 -52 63 c-40 49 -59 64 -82 66 -17 2 -31 -1 -31 -6 0
-20 -28 -9 -46 17 -9 15 -27 36 -38 46 l-21 19 23 -5 c14 -4 22 0 22 9 0 8 8
14 17 14 13 0 8 9 -18 36 -55 57 -168 135 -130 91 15 -19 4 -27 -35 -27 -23 0
-37 6 -44 20 -6 11 -17 20 -25 20 -8 0 -15 6 -15 14 0 8 -3 21 -6 30 -5 12 1
16 25 16 18 0 38 8 49 21 28 30 69 18 70 -22 0 -16 -4 -32 -10 -35 -16 -10 72
-55 96 -49 14 4 17 3 8 -3 -10 -6 11 -23 75 -59 48 -28 105 -61 126 -73 l37
-22 -10 27 c-6 15 -22 46 -36 70 -24 42 -26 43 -44 27 -14 -12 -17 -19 -8 -29
15 -18 -11 -17 -38 2 -33 22 -98 88 -109 110 -6 11 -16 20 -23 20 -6 0 -18 10
-27 22 -14 21 -14 22 12 25 22 2 29 9 31 31 3 23 8 28 23 24 25 -7 25 19 0 33
-14 7 -21 6 -24 -3 -3 -9 -9 -9 -27 1 -12 8 -19 9 -16 3 7 -11 -12 -26 -21
-17 -4 3 4 17 16 30 29 30 18 37 -64 41 -57 3 -62 2 -58 -16 3 -10 0 -19 -6
-19 -6 0 -11 5 -11 10 0 6 -9 10 -20 10 -17 0 -19 -5 -14 -25 7 -27 -4 -33
-24 -13 -9 9 -12 9 -13 0 -1 -7 -2 -18 -3 -24 0 -7 -8 -14 -17 -16 -13 -2 -16
4 -15 30 2 18 -2 39 -7 45 -6 9 -4 15 8 19 9 4 20 2 24 -3 3 -6 15 -7 25 -3
18 6 18 7 2 13 -9 4 -14 12 -11 18 4 6 14 8 22 4 13 -5 14 -3 3 10 -12 14 -10
15 13 10 30 -8 38 11 10 22 -10 4 -20 10 -23 13 -3 4 -14 12 -25 18 -17 10
-18 11 -2 12 9 0 17 7 17 15 0 8 -9 15 -19 15 -12 0 -21 9 -25 25 -7 29 -26
34 -26 8 -1 -15 -4 -14 -20 6 -11 13 -20 29 -20 37 0 8 -4 14 -10 14 -5 0 -10
-4 -10 -10 0 -5 -7 -7 -15 -4 -8 4 -15 18 -15 33 0 14 -5 33 -11 41 -8 12 -10
9 -6 -13 2 -15 0 -30 -5 -33 -4 -3 -6 -9 -3 -14 3 -4 10 -42 15 -83 6 -42 13
-86 16 -99 2 -13 4 -57 2 -98 -1 -41 -2 -121 -2 -177 1 -95 -5 -119 -21 -93
-4 6 -16 8 -27 4 -15 -4 -19 -2 -16 7 3 8 13 13 24 11 18 -2 19 6 21 149 2
126 0 150 -11 146 -8 -3 -17 1 -20 9 -3 8 -10 14 -15 14 -7 0 -7 -9 -1 -24 7
-19 5 -25 -9 -29 -14 -3 -17 1 -13 20 3 15 0 23 -8 21 -6 -2 -16 7 -21 20 -7
17 -5 22 6 20 19 -4 16 10 -17 61 -30 49 -38 44 -12 -8 18 -36 13 -51 -11 -31
-13 11 -14 10 -9 -4 3 -9 1 -16 -5 -16 -6 0 -11 3 -11 8 0 4 -12 15 -26 26
-26 18 -26 18 -15 -3 15 -27 13 -26 -43 5 -25 14 -43 30 -40 36 10 16 -17 58
-37 58 -22 0 -39 29 -39 65 0 30 24 43 45 25 13 -11 14 -10 9 4 -7 18 -35 21
-51 5 -8 -8 -17 -7 -34 2 -17 9 -24 9 -27 0 -2 -6 -8 -11 -14 -11 -12 0 -58
47 -58 59 0 15 31 21 50 11 11 -6 32 -12 47 -14 15 -2 48 -11 72 -20 24 -9 54
-16 66 -16 12 0 34 -9 48 -20 14 -11 29 -20 34 -19 22 4 25 -2 7 -16 -10 -8
-14 -14 -9 -13 20 5 67 -35 62 -53 -5 -20 45 -78 51 -60 2 6 -7 21 -20 32 -12
11 -16 17 -8 13 26 -14 50 -14 50 0 0 7 -10 17 -22 20 -19 6 -20 8 -7 14 10 5
16 23 18 60 l3 53 -29 -6 c-27 -6 -27 -6 -9 9 15 12 16 16 5 16 -9 0 -10 3 -3
8 5 4 16 22 23 40 16 38 48 82 61 82 5 0 12 -5 15 -10z m-3444 -35 c33 -12 64
-14 126 -9 77 6 83 5 83 -12 0 -11 -7 -28 -15 -38 -19 -25 -19 -92 -1 -143 14
-39 13 -41 -22 -92 -19 -28 -41 -51 -47 -51 -18 0 -47 38 -102 130 -67 114
-106 199 -99 216 7 18 23 18 77 -1z m4339 -1 c32 -13 58 -15 120 -10 44 4 84
5 90 1 6 -4 2 -20 -10 -43 -24 -44 -25 -69 -5 -141 l14 -53 -37 -49 c-20 -27
-42 -49 -49 -49 -17 0 -93 117 -156 239 -37 73 -45 96 -36 107 15 18 20 18 69
-2z m-3613 -65 c98 -77 163 -139 163 -156 0 -19 -33 -16 -147 13 l-103 27 0
89 c0 48 2 88 4 88 3 0 40 -28 83 -61z m1246 -396 c-2 -7 19 -14 55 -19 31 -3
69 -13 84 -20 31 -16 51 -19 28 -4 -12 8 -11 10 7 10 12 0 24 -4 28 -9 15 -26
-72 -37 -117 -15 -20 10 -34 11 -57 3 -18 -6 -43 -9 -56 -7 -13 3 -22 1 -19
-3 9 -15 -45 -30 -66 -19 -11 6 -37 7 -60 4 -24 -4 -45 -2 -53 5 -10 7 -24 8
-48 1 -49 -15 -108 -15 -121 -2 -9 9 -5 12 17 13 17 1 34 1 39 0 4 -1 23 3 42
9 21 7 39 8 51 2 10 -6 35 -6 58 -2 l40 8 -40 2 c-32 1 -36 3 -20 10 27 11 78
12 71 1 -8 -13 34 -18 72 -9 36 10 40 19 16 43 -16 15 -14 16 17 13 19 -2 33
-8 32 -15z m-378 -97 c15 -9 28 -9 55 0 45 16 76 17 99 3 13 -9 27 -9 48 -2
21 8 37 7 58 -1 24 -10 35 -10 55 1 31 16 48 16 79 -1 21 -11 30 -11 59 1 31
13 37 12 68 -6 31 -18 40 -19 78 -9 50 13 73 7 86 -24 l9 -23 0 22 c1 29 14
35 37 18 10 -8 27 -15 37 -15 9 0 17 -7 17 -16 0 -15 -21 -16 -232 -11 -128 4
-266 7 -306 7 -46 0 -71 4 -67 10 3 6 1 10 -4 10 -6 0 -11 -4 -11 -10 0 -6
-30 -10 -71 -10 -38 0 -68 3 -66 8 3 4 -27 7 -66 7 -78 0 -96 14 -50 40 27 15
27 16 3 10 -14 -4 -30 -7 -36 -7 -6 -1 -9 -12 -6 -25 5 -25 -8 -28 -67 -17
-43 9 -39 32 7 40 20 3 51 10 67 14 35 9 91 3 120 -14z m1663 -84 c2 -12 10
-22 18 -22 8 0 13 -4 10 -9 -3 -5 0 -11 7 -14 8 -3 14 1 14 9 0 8 -4 14 -9 14
-5 0 -6 5 -3 10 10 16 23 12 30 -10 4 -11 10 -18 14 -16 6 4 7 -41 1 -54 -1
-3 -2 -8 -1 -12 0 -5 -4 -8 -10 -8 -8 0 -7 -6 2 -16 12 -15 10 -16 -19 -10
-21 5 -32 4 -32 -3 0 -6 -7 -11 -15 -11 -27 0 -16 18 15 25 35 8 62 45 33 45
-10 0 -38 -7 -63 -16 -71 -25 -241 -7 -354 38 -59 23 -138 39 -130 27 7 -12
-1 -11 -41 5 -58 25 -42 36 43 30 70 -4 151 -25 177 -45 6 -4 20 -8 30 -8 11
0 45 -7 75 -15 61 -18 155 -22 145 -6 -3 6 -2 10 4 10 5 0 13 -4 16 -10 9 -15
25 -12 25 5 0 8 -7 15 -16 15 -8 0 -12 5 -9 10 10 17 33 11 40 -10 3 -11 11
-20 17 -20 6 0 4 10 -5 23 -9 13 -24 21 -38 20 -48 -3 -55 6 -24 32 35 28 49
27 53 -3z m1287 -158 c8 -9 23 -30 31 -46 9 -17 63 -99 120 -184 57 -84 104
-159 104 -167 0 -20 -29 -30 -46 -16 -8 6 -14 21 -14 33 0 33 -37 86 -60 86
-17 0 -20 -7 -20 -51 0 -54 -13 -89 -33 -89 -7 0 -36 -18 -65 -39 -45 -33 -60
-38 -90 -34 -40 5 -66 -13 -74 -52 -3 -16 4 -22 37 -30 35 -9 40 -15 43 -41 5
-47 -19 -60 -52 -28 -14 15 -26 33 -26 40 0 7 -21 32 -47 56 -148 135 -157
152 -123 223 48 99 208 321 249 345 24 14 48 12 66 -6z m-3831 -70 c32 -30 44
-35 71 -31 27 4 35 1 45 -18 7 -13 39 -34 74 -50 50 -22 57 -28 42 -34 -17 -7
-16 -9 14 -19 18 -7 43 -12 55 -12 13 0 25 -6 28 -14 9 -22 -52 -27 -87 -7
-16 9 -40 22 -54 30 -17 9 -21 16 -12 21 16 10 -30 42 -107 76 -64 28 -64 28
25 -46 63 -52 146 -101 191 -113 19 -5 22 -10 17 -31 -4 -18 -2 -26 7 -26 8 0
22 -9 31 -19 14 -15 15 -24 7 -40 -16 -30 -14 -33 22 -29 31 3 32 2 32 -37 0
-50 -20 -53 -51 -8 l-21 31 -25 -25 c-33 -33 -59 -21 -28 12 17 18 20 30 15
54 -4 17 -12 31 -18 31 -6 0 -49 -12 -95 -26 -47 -14 -88 -22 -92 -17 -4 4
-24 49 -45 98 -21 50 -55 125 -76 167 -22 43 -39 87 -39 98 0 31 31 24 74 -16z
m2919 -44 c153 -39 259 -86 412 -182 74 -47 63 -50 -14 -4 -31 18 -67 39 -81
46 -24 13 -24 12 -10 -5 9 -11 10 -16 3 -11 -7 4 -13 3 -13 -3 0 -6 -7 -8 -15
-5 -8 4 -12 11 -8 18 3 6 3 8 -2 4 -4 -4 -22 0 -39 9 -17 8 -29 13 -26 10 10
-10 96 -73 178 -130 45 -32 82 -60 82 -63 0 -3 -119 73 -214 138 -21 15 -45
24 -54 20 -11 -4 -4 -11 25 -25 31 -15 42 -27 45 -47 3 -22 1 -27 -11 -22 -12
4 -11 -1 4 -19 16 -18 16 -21 2 -10 -9 8 -20 11 -23 8 -4 -3 -25 12 -48 33
-22 22 -48 40 -56 40 -9 0 -21 5 -28 12 -8 8 -45 12 -107 12 -52 -1 -92 2 -90
6 9 14 59 18 77 6 15 -8 21 -8 27 3 6 9 19 12 40 8 17 -4 31 -4 31 -1 0 12
-49 53 -100 84 -73 44 -123 60 -183 60 -31 0 -47 4 -41 9 27 26 135 26 237 1z
m-1866 -107 c13 -16 23 -23 22 -18 -3 23 2 24 22 4 15 -15 19 -28 14 -47 -6
-25 -89 -115 -127 -137 -13 -8 -15 -18 -10 -49 l7 -38 19 21 c24 26 71 35 140
27 41 -6 55 -12 59 -26 3 -14 17 -21 46 -26 22 -4 39 -10 36 -14 -2 -4 -17 -5
-31 -2 -24 4 -26 2 -21 -19 3 -13 9 -54 12 -91 5 -47 12 -69 23 -73 26 -10 33
16 31 125 -2 118 3 140 36 140 12 0 27 6 33 13 11 13 23 74 24 124 2 29 3 31
27 21 14 -5 33 -16 42 -24 15 -13 17 -13 23 1 3 9 10 13 16 10 16 -10 11 -44
-10 -65 -26 -26 -25 -60 0 -88 26 -28 38 -28 67 0 21 19 24 20 40 6 10 -9 36
-21 58 -28 22 -7 34 -15 27 -18 -7 -2 -26 1 -43 7 -38 13 -47 -4 -30 -58 6
-21 11 -48 11 -60 0 -42 25 -16 75 80 30 56 57 95 67 97 10 2 30 -6 44 -17 30
-23 44 -27 44 -10 0 14 25 39 39 39 6 0 11 -4 11 -10 0 -5 17 -19 38 -30 33
-19 28 -21 -13 -4 -12 5 -15 -2 -15 -30 0 -45 12 -51 86 -41 l56 7 -5 46 c-3
30 -1 50 8 59 18 18 22 17 59 -13 27 -24 28 -26 7 -19 -22 7 -23 5 -18 -26 3
-19 10 -68 16 -109 18 -132 22 -145 32 -129 5 8 9 28 9 46 0 18 10 49 21 70
23 40 37 84 45 143 5 37 29 70 50 70 16 0 54 -53 54 -77 1 -10 9 -34 20 -53
45 -83 92 -212 81 -220 -19 -13 -19 -39 0 -45 16 -5 17 -10 8 -27 -6 -11 -8
-22 -5 -25 3 -4 1 -12 -5 -19 -12 -14 -42 -7 -33 8 3 5 -1 17 -9 26 -9 10 -18
30 -21 46 -7 37 -23 48 -61 39 -16 -3 -36 -6 -42 -6 -7 0 -13 -4 -13 -9 0 -5
-7 -17 -16 -26 -19 -18 -2 -31 19 -14 7 6 21 6 33 2 24 -10 41 -30 25 -30 -6
0 -11 3 -11 8 0 4 -11 8 -25 8 -29 2 -32 -4 -8 -21 9 -7 13 -17 9 -23 -4 -8
-14 -4 -28 10 -15 15 -22 17 -28 8 -8 -14 -50 -5 -50 11 0 5 -10 1 -22 -11
-12 -11 -27 -20 -34 -20 -15 0 -47 49 -50 77 -6 55 -13 63 -60 63 -40 0 -57
-11 -35 -24 5 -3 11 -17 14 -31 4 -24 2 -26 -24 -20 -23 5 -29 3 -29 -10 0 -9
9 -19 20 -22 16 -4 17 -7 5 -19 -22 -22 -54 -17 -65 11 -5 14 -20 27 -35 31
-32 8 -40 1 -26 -24 8 -15 7 -23 -5 -33 -19 -16 -48 -1 -52 27 -1 10 -8 50
-15 88 -13 70 -13 70 -26 39 -7 -16 -11 -41 -10 -54 4 -50 0 -59 -29 -59 -34
0 -45 -9 -32 -25 15 -18 -13 -48 -46 -49 -22 -1 -30 -6 -32 -23 -3 -23 -22
-33 -22 -12 0 6 -7 9 -14 6 -22 -9 -76 46 -76 76 0 32 -17 44 -33 24 -7 -9
-28 -17 -47 -19 -23 -2 -35 -8 -35 -18 0 -16 -46 -60 -63 -60 -20 0 -25 41 -7
54 14 10 12 12 -18 14 -21 2 -39 -3 -47 -13 -8 -10 -9 -15 -1 -15 18 0 12 -18
-10 -30 -28 -15 -97 -19 -134 -6 -32 10 -108 56 -113 69 -2 4 -8 7 -14 7 -15
0 2 -103 19 -115 24 -18 12 -50 -20 -53 -23 -3 -29 2 -38 27 -6 17 -15 31 -21
31 -5 0 -7 4 -4 8 4 8 -127 5 -152 -4 -25 -8 -3 -21 44 -27 25 -2 51 -10 57
-17 9 -10 7 -11 -10 -5 -14 4 -23 2 -23 -4 0 -6 -13 -11 -30 -11 -16 0 -30 -5
-30 -11 0 -5 4 -8 9 -4 5 3 12 1 16 -5 4 -6 -10 -8 -35 -6 -22 2 -40 1 -39 -3
0 -3 18 -20 40 -38 22 -18 39 -36 39 -40 -1 -4 1 -47 5 -94 6 -75 4 -91 -14
-129 -23 -48 -20 -60 15 -60 20 0 24 -5 24 -30 l0 -30 -70 0 c-60 0 -70 -3
-68 -16 2 -9 -5 -21 -14 -28 -22 -14 -53 3 -53 28 0 10 -7 22 -16 27 -9 5 -20
20 -23 34 -4 14 -11 25 -16 25 -11 0 -3 -25 19 -59 11 -18 12 -26 4 -28 -7 -3
-9 -11 -6 -19 8 -21 -27 -18 -51 6 -12 10 -41 22 -66 25 -30 4 -40 3 -31 -3
16 -11 7 -48 -14 -56 -19 -7 -45 3 -45 18 0 6 -6 23 -13 37 -9 16 -16 84 -21
190 -6 141 -4 167 9 187 21 28 70 30 85 3 14 -28 13 -31 -14 -31 -14 0 -27 -3
-29 -7 -6 -11 12 -73 21 -73 4 0 19 19 35 43 40 62 63 87 81 87 21 0 16 -63
-7 -88 -27 -30 -20 -38 10 -11 14 13 22 18 18 10 -8 -14 -15 -57 -17 -112 -1
-27 36 -89 53 -89 11 0 11 84 0 188 -6 67 -5 75 13 88 11 8 16 15 11 15 -6 1
-25 3 -44 5 -63 7 -47 17 19 11 82 -7 120 15 120 68 0 19 -4 36 -9 39 -14 9
-25 127 -13 135 6 4 18 23 27 44 14 35 14 37 -2 38 -17 1 -17 2 0 6 10 3 16
11 13 18 -3 8 0 16 7 19 7 4 -1 4 -16 1 -19 -4 -26 -2 -22 5 3 5 15 10 26 10
17 0 19 7 18 58 -1 32 -4 48 -7 37 -8 -24 -26 -29 -54 -14 -16 9 -19 8 -16 -3
2 -7 19 -19 36 -27 32 -15 44 -41 19 -41 -8 0 -36 -11 -63 -25 l-49 -24 30 26
c19 17 23 24 11 20 -12 -5 -23 -3 -29 5 -6 9 -7 8 -3 -4 6 -19 -8 -31 -37 -33
-12 -1 -25 12 -38 37 -11 22 -15 38 -9 38 6 0 9 4 5 10 -3 5 -13 2 -23 -8 -12
-11 -14 -20 -8 -24 6 -4 8 -8 4 -8 -4 0 -3 -11 2 -25 7 -18 6 -25 -3 -26 -9 0
-9 -2 0 -6 9 -3 10 -10 3 -22 -5 -10 -6 -21 -3 -25 3 -3 1 -6 -6 -6 -7 0 -9
-4 -6 -10 8 -13 -1 -13 -28 1 l-22 12 20 -23 20 -23 -22 12 c-27 14 -45 14
-20 0 9 -5 17 -15 17 -22 0 -9 -3 -9 -8 1 -7 10 -20 10 -60 1 -59 -12 -70 -27
-16 -21 26 3 35 1 30 -7 -4 -7 -16 -9 -26 -6 -10 3 -34 -1 -54 -9 l-35 -15 12
27 c6 15 22 42 34 61 13 19 28 52 34 75 6 22 16 44 23 48 7 5 7 8 0 8 -5 0
-21 -10 -33 -21 -17 -16 -22 -30 -19 -51 4 -22 -1 -34 -18 -47 -13 -10 -20
-21 -17 -25 3 -3 1 -6 -6 -6 -7 0 -11 -7 -8 -14 4 -11 1 -13 -11 -9 -15 6 -16
5 -2 -12 13 -17 13 -18 -1 -13 -18 7 -53 -27 -44 -42 4 -6 -1 -10 -9 -10 -9 0
-16 -4 -16 -10 0 -14 -28 -12 -32 2 -3 7 -7 3 -10 -9 -4 -16 -2 -20 8 -16 29
11 12 -7 -21 -23 -39 -18 -48 -39 -12 -28 22 7 22 6 4 -14 -11 -12 -16 -26
-11 -34 4 -7 3 -10 -1 -5 -5 4 -19 -2 -31 -14 l-23 -21 6 21 c3 12 9 24 14 27
19 11 8 25 -13 19 -34 -11 -88 -65 -109 -110 -17 -35 -19 -36 -13 -10 10 54
52 114 97 137 40 20 41 22 18 28 -33 8 -42 35 -10 28 13 -3 32 -9 41 -13 13
-5 21 4 38 42 27 58 47 81 122 139 47 36 57 50 63 84 11 64 82 126 167 144 18
4 25 11 22 20 -9 24 16 29 39 8 12 -10 42 -22 67 -25 25 -3 52 -8 60 -11 8 -3
24 1 35 9 17 14 18 17 3 31 -12 12 -20 13 -35 6 -32 -18 -46 0 -27 36 15 31
12 52 -7 52 -5 0 -19 -20 -31 -45 -14 -29 -29 -45 -40 -45 -10 0 -18 4 -18 9
0 7 35 57 70 98 12 15 2 43 -16 43 -8 0 -14 7 -14 15 0 43 223 65 271 27 l22
-19 -26 -7 c-18 -4 -24 -11 -21 -21 4 -8 1 -15 -5 -15 -6 0 -11 -7 -11 -16 0
-8 5 -12 10 -9 15 9 12 -19 -5 -41 -19 -26 -19 -34 4 -34 17 0 32 34 35 79 1
8 7 16 15 19 10 3 12 -2 8 -20 -4 -14 -4 -28 -1 -31 10 -10 34 4 34 20 0 8 4
11 10 8 5 -3 16 9 23 27 16 37 80 98 103 98 12 0 11 6 -6 30 -27 38 -14 40 17
3z m233 -58 c28 -30 40 -32 33 -5 -7 27 20 26 39 -1 13 -20 9 -26 -63 -95
-104 -99 -127 -96 -78 9 9 20 10 30 2 35 -6 4 -13 22 -16 40 -5 33 -5 33 14
16 19 -17 20 -17 26 4 7 28 14 28 43 -3z m1885 -262 c8 -22 111 -212 127 -234
8 -12 -2 -36 -50 -119 -34 -56 -63 -108 -65 -114 -2 -6 -7 -9 -10 -6 -8 7 -35
214 -45 345 l-8 100 -58 -90 c-32 -49 -80 -123 -108 -163 l-49 -74 26 -25 c26
-27 28 -33 25 -102 -1 -29 2 -41 9 -37 6 4 11 14 11 22 0 9 16 2 46 -21 53
-41 61 -42 108 -14 19 11 40 18 46 14 5 -3 10 -28 10 -55 0 -64 1 -63 -147
-86 -32 -5 -33 -6 -33 -53 0 -33 -5 -53 -17 -63 -26 -24 -92 -40 -143 -36 -38
2 -46 7 -48 26 -2 14 -10 22 -23 22 -13 0 -19 7 -19 22 0 29 -17 11 -22 -22
-5 -40 -70 -72 -141 -67 -68 4 -107 34 -133 103 -9 24 -21 41 -27 37 -6 -4 -7
20 -3 69 13 133 14 168 5 168 -5 0 -9 5 -9 10 0 6 11 10 24 10 25 0 51 22 39
33 -3 4 3 7 15 7 12 0 21 3 21 8 -3 19 3 22 24 11 22 -12 22 -12 3 10 -11 11
-27 21 -38 21 -10 0 -18 5 -18 10 0 6 5 10 11 10 5 0 7 5 4 10 -3 6 0 10 8 10
8 0 14 -8 13 -17 -1 -12 7 -19 25 -21 23 -3 26 1 26 28 0 17 -3 26 -7 20 -10
-15 -49 -3 -85 26 -28 23 -29 24 -7 24 12 0 22 -4 22 -9 0 -5 8 -12 17 -15 13
-5 12 -1 -6 18 l-23 25 118 -5 c64 -3 121 -7 126 -10 8 -5 78 46 78 58 0 3 -6
8 -12 11 -7 2 -1 2 13 0 34 -5 58 21 32 36 -14 8 -15 10 -3 11 9 0 20 -4 25
-9 6 -6 19 -3 34 8 l24 19 -31 7 c-18 3 -34 11 -37 16 -9 13 7 11 48 -6 25
-10 38 -11 42 -4 4 6 -2 13 -14 16 -12 3 -21 10 -21 15 0 6 11 3 25 -6 24 -16
27 -15 55 6 28 20 42 37 20 23 -5 -3 -10 3 -10 14 0 23 19 28 37 10 8 -8 22
-5 49 10 48 25 70 26 79 4z m-3503 -320 c26 -31 28 -52 8 -116 -11 -34 -26
-109 -32 -167 -9 -85 -16 -110 -34 -130 -12 -14 -32 -51 -44 -82 -25 -68 -60
-100 -150 -140 -37 -16 -78 -43 -95 -63 -26 -31 -37 -36 -92 -41 -41 -5 -72
-2 -93 6 -47 19 -41 59 39 244 37 89 76 185 85 213 14 41 29 62 64 90 26 21
76 63 112 95 115 100 196 132 232 91z m4340 0 c28 -32 28 -57 3 -148 -14 -52
-25 -117 -25 -153 0 -60 -21 -122 -41 -122 -4 0 -17 -26 -29 -57 -28 -77 -59
-107 -155 -155 -44 -21 -92 -52 -106 -67 -46 -51 -179 -54 -201 -6 -13 28 4
80 85 265 30 69 61 144 68 168 13 44 18 50 167 177 129 110 198 138 234 98z
m-1722 -62 c0 -5 -6 -11 -12 -14 -7 -2 1 -4 17 -4 17 -1 35 3 41 8 8 6 27 5
53 -3 44 -14 54 -28 20 -28 -19 0 -20 -2 -8 -17 12 -14 12 -16 0 -8 -12 7 -13
-1 -8 -46 16 -139 27 -292 20 -302 -4 -7 1 -6 11 2 16 14 17 13 14 -15 -2 -23
-8 -30 -31 -32 -19 -2 -29 2 -33 15 -3 10 -13 36 -23 58 l-18 39 -27 -42 c-17
-27 -42 -50 -71 -64 -32 -16 -48 -31 -55 -53 -9 -29 -15 -32 -48 -31 -47 1
-50 26 -5 38 42 11 57 33 16 24 -19 -5 -33 -2 -39 6 -16 21 -35 86 -36 119 -1
21 -5 28 -15 25 -18 -7 -16 4 5 21 16 14 16 14 0 9 -14 -4 -18 0 -18 21 0 21
2 24 15 13 12 -10 15 -9 15 8 0 29 -10 52 -23 52 -7 0 -7 -4 1 -12 14 -14 16
-28 3 -28 -5 0 -12 11 -15 25 -7 29 -18 31 -40 9 -18 -17 -19 -37 -7 -139 5
-44 4 -75 -2 -82 -14 -18 7 -17 22 1 7 8 16 27 20 42 4 15 14 30 22 32 11 4
12 2 2 -9 -7 -7 -13 -17 -13 -22 0 -4 6 -5 13 0 19 11 -47 -68 -89 -107 -21
-20 -34 -28 -31 -18 5 14 2 17 -16 14 -12 -3 -24 -5 -27 -6 -3 -2 -8 -2 -12
-1 -5 0 -8 -6 -8 -14 0 -24 -45 -18 -78 10 -16 13 -31 22 -34 19 -3 -2 -11 3
-19 13 -12 15 -12 16 4 10 21 -8 22 2 2 39 l-15 29 0 -26 c0 -22 -6 -28 -32
-34 -25 -6 -28 -9 -14 -12 11 -3 31 -16 45 -30 l26 -25 -25 13 c-14 7 -45 14
-70 14 -33 0 -45 4 -45 15 0 9 -12 16 -31 18 -29 3 -31 1 -27 -22 4 -21 0 -26
-22 -32 -31 -8 -45 3 -49 37 -1 13 -5 31 -9 39 -4 8 -8 56 -9 105 l-3 90 -108
1 c-122 0 -167 -15 -167 -59 0 -40 34 -61 98 -62 35 0 67 -7 82 -17 14 -9 40
-19 58 -23 17 -4 32 -10 32 -15 0 -5 3 -15 6 -23 6 -16 -41 -37 -85 -37 l-26
-1 23 -12 23 -13 -25 -23 c-22 -20 -32 -23 -71 -18 -24 4 -66 17 -92 30 -27
14 -64 27 -85 31 -32 6 -36 5 -31 -13 3 -12 -3 -24 -19 -35 -22 -16 -23 -16
-32 9 -9 23 -15 25 -69 25 -33 0 -56 -4 -52 -9 8 -14 -24 -41 -50 -41 -23 0
-35 17 -35 51 0 10 -4 19 -8 19 -5 0 -13 74 -18 165 -7 130 -6 169 4 182 17
23 47 5 47 -28 1 -46 17 -159 24 -159 11 0 82 140 77 149 -4 5 -1 11 6 13 15
5 1 28 -18 28 -8 0 -12 -4 -9 -10 4 -6 -5 -10 -19 -10 -14 0 -26 2 -26 5 0 11
65 37 108 43 78 10 107 8 104 -7 -1 -7 3 -19 9 -27 9 -12 6 -11 -17 1 -26 13
-29 13 -37 -2 -13 -22 13 -234 30 -252 20 -19 21 -13 13 57 -4 35 -6 73 -3 85
13 60 36 126 43 122 10 -6 22 24 15 36 -4 5 1 6 9 3 9 -3 16 -2 16 4 0 6 -5
12 -12 14 -6 2 23 4 65 4 41 -1 74 -3 72 -5 -2 -2 5 -11 16 -20 17 -14 19 -21
10 -44 -6 -15 -8 -32 -6 -39 4 -10 -10 -13 -49 -13 -33 0 -61 -6 -73 -15 -10
-8 -8 -5 5 8 13 12 18 22 11 22 -13 0 -59 -39 -59 -50 0 -10 34 -8 48 3 7 5
61 12 119 14 59 2 112 8 117 13 11 11 6 13 -41 10 -28 -1 -35 3 -44 27 -8 20
-7 33 1 47 9 14 9 16 -2 10 -10 -6 -9 -4 1 10 8 9 20 15 28 12 8 -3 11 -1 8 4
-3 6 1 10 10 10 9 0 13 -4 10 -10 -3 -5 -1 -10 4 -10 6 0 11 4 11 8 0 5 14 6
31 4 19 -3 29 -1 26 5 -3 5 0 10 8 10 8 0 12 -5 8 -10 -3 -5 11 -7 35 -3 48 6
58 -4 56 -59 -1 -39 -2 -40 -43 -43 -65 -5 -48 -22 24 -22 l64 0 6 33 c4 18 5
37 4 42 -2 6 2 19 8 30 6 11 11 24 11 30 0 5 6 11 13 14 6 2 9 -1 5 -7 -3 -6
3 -12 16 -14 26 -3 31 -13 94 -165 25 -62 50 -116 56 -119 21 -13 57 49 58 97
0 46 -1 47 -35 53 -23 5 -41 16 -52 34 -10 15 -37 47 -60 71 -68 70 -60 71 71
6 54 -26 62 -34 67 -65 5 -23 5 -18 3 17 -2 28 0 55 6 58 5 3 10 15 10 26 0
19 4 20 40 14 25 -4 40 -3 40 3 0 10 68 7 78 -3 3 -2 11 2 18 10 11 10 20 11
43 2 37 -14 32 -25 -9 -19 -18 2 -30 0 -30 -7 0 -6 11 -11 25 -11 14 0 25 -6
25 -12 0 -9 4 -8 10 2 11 17 13 10 4 -14 -5 -14 -8 -14 -27 -1 -41 28 -45 15
-27 -84 5 -31 13 -82 16 -113 3 -32 9 -58 14 -58 4 0 18 19 30 42 20 38 21 52
16 150 l-5 108 35 16 c19 9 34 20 34 25 0 5 7 9 15 9 8 0 15 -4 15 -9z m342
-628 c70 -69 64 -111 -16 -120 -80 -9 -122 27 -87 75 10 15 22 42 26 60 3 17
12 32 18 32 6 0 33 -21 59 -47z m-527 -185 c9 -13 30 -46 48 -75 18 -29 69
-107 115 -175 88 -131 98 -158 57 -158 -19 0 -25 5 -25 20 0 45 -58 115 -78
96 -3 -4 -7 -30 -7 -59 -2 -47 -5 -54 -34 -72 -18 -11 -53 -35 -78 -53 -38
-28 -49 -32 -72 -24 -34 12 -59 0 -72 -36 -8 -21 -7 -29 7 -39 10 -7 28 -13
40 -13 28 0 40 -31 24 -60 -15 -29 -41 -21 -65 19 -25 42 -68 88 -122 129 -23
18 -51 52 -63 76 -18 38 -19 48 -8 72 36 83 171 277 245 352 12 12 33 22 47
22 15 0 32 -9 41 -22z m-2808 -23 c27 -13 78 -32 115 -41 37 -9 69 -23 72 -31
3 -8 -3 -34 -14 -58 -11 -25 -20 -65 -20 -94 0 -57 -10 -69 -35 -41 -12 13
-25 18 -40 14 -12 -3 -41 0 -64 6 -29 7 -46 8 -55 1 -15 -13 -31 -2 -41 27
-11 36 -7 199 5 222 14 26 20 25 77 -5z m3466 1 c23 -13 69 -30 102 -36 103
-21 108 -28 75 -101 -11 -24 -20 -60 -20 -79 0 -49 -11 -64 -35 -46 -11 8 -34
11 -60 8 -25 -2 -45 0 -49 7 -9 14 -43 14 -48 1 -2 -7 -11 -5 -23 4 -18 13
-20 26 -20 123 0 110 6 143 25 143 6 0 30 -11 53 -24z"/>
</g>
</svg>
